<mxfile host="Electron" modified="2024-03-12T08:02:31.611Z" agent="Mozilla/5.0 (Windows NT 10.0; Win64; x64) AppleWebKit/537.36 (KHTML, like Gecko) draw.io/21.4.0 Chrome/112.0.5615.204 Electron/24.5.1 Safari/537.36" etag="B8Fgw2K61E5JdK9cd3KK" version="21.4.0" type="device" pages="2">
  <diagram name="第 1 页" id="n1XFNzkz8BbFlzxkN9Cn">
    <mxGraphModel dx="1100" dy="902" grid="1" gridSize="10" guides="1" tooltips="1" connect="1" arrows="1" fold="1" page="1" pageScale="1" pageWidth="827" pageHeight="1169" math="0" shadow="0">
      <root>
        <mxCell id="0" />
        <mxCell id="1" parent="0" />
        <mxCell id="dIf3M5Mu_o8Ck2-ogFHV-1" value="请求进行扩容" style="rounded=1;whiteSpace=wrap;html=1;" vertex="1" parent="1">
          <mxGeometry x="220" y="450" width="190" height="40" as="geometry" />
        </mxCell>
        <mxCell id="dIf3M5Mu_o8Ck2-ogFHV-2" value="计算期望的副本数&lt;br&gt;computeReplicasForMetric" style="rounded=1;whiteSpace=wrap;html=1;" vertex="1" parent="1">
          <mxGeometry x="220" y="370" width="190" height="40" as="geometry" />
        </mxCell>
        <mxCell id="dIf3M5Mu_o8Ck2-ogFHV-3" value="获取指标？" style="rounded=1;whiteSpace=wrap;html=1;" vertex="1" parent="1">
          <mxGeometry x="220" y="290" width="190" height="40" as="geometry" />
        </mxCell>
      </root>
    </mxGraphModel>
  </diagram>
  <diagram id="s2wcxsCuNcP7V0S1od9M" name="第 2 页">
    <mxGraphModel dx="1100" dy="902" grid="1" gridSize="10" guides="1" tooltips="1" connect="1" arrows="1" fold="1" page="1" pageScale="1" pageWidth="827" pageHeight="1169" math="0" shadow="0">
      <root>
        <mxCell id="0" />
        <mxCell id="1" parent="0" />
      </root>
    </mxGraphModel>
  </diagram>
</mxfile>
